<?xml version="1.0" encoding="UTF-8" standalone="yes"?>
<svg version="1.2" width="834" height="834" baseProfile="tiny-ps" xmlns="http://www.w3.org/2000/svg">
  <title>bimi-svg-tiny-12-ps</title>
  <path d="M0 0 C48.57255234 -0.03425318 97.14510555 -0.06609226 145.71766663 -0.08468628 C146.7968246 -0.08510045 146.7968246 -0.08510045 147.89778375 -0.08552299 C163.53492628 -0.09150947 179.17206894 -0.09704974 194.80921179 -0.10213066 C202.47819526 -0.10462523 210.14717869 -0.10721835 217.81616211 -0.10986328 C218.96086694 -0.11025556 218.96086694 -0.11025556 220.12869712 -0.11065576 C244.8428022 -0.11917116 269.55689811 -0.13418832 294.27099763 -0.15259444 C319.67810733 -0.17148222 345.08521196 -0.18377612 370.49232857 -0.18782998 C374.08485218 -0.18840625 377.67737578 -0.18905752 381.26989937 -0.18975449 C381.97692622 -0.18988933 382.68395308 -0.19002418 383.41240499 -0.19016311 C394.77161584 -0.19252214 406.13081095 -0.20178633 417.4900154 -0.21366407 C428.9231517 -0.22547061 440.35626638 -0.2297666 451.78940969 -0.22700275 C457.97872319 -0.22572372 464.1679907 -0.22766358 470.35729599 -0.23841095 C476.03222338 -0.24819282 481.70707414 -0.24860303 487.38200516 -0.24179779 C489.42671017 -0.24095755 491.4714201 -0.24345256 493.51611554 -0.24976636 C509.11160318 -0.29509335 524.3613517 0.45585729 539.5625 4.25 C540.88797852 4.57750244 540.88797852 4.57750244 542.24023438 4.91162109 C568.40552375 11.59483763 592.14101669 24.80763786 611.52783203 43.57910156 C613.0138435 45.01336139 614.51960083 46.42457776 616.02734375 47.8359375 C634.90327216 65.78095667 647.58585235 89.14387529 655.25 113.875 C655.48420654 114.61588867 655.71841309 115.35677734 655.9597168 116.12011719 C660.71811813 132.26012314 661.43316529 148.22705448 661.36076355 164.93081665 C661.36207433 167.20261854 661.36470574 169.47441999 661.36853105 171.74621904 C661.37519443 177.94227073 661.36330081 184.13816492 661.34819686 190.33419657 C661.3365201 196.34388886 661.33908353 202.35356505 661.34124239 208.36326418 C661.34516883 220.64396735 661.33521819 232.92462181 661.31719017 245.20531082 C661.2994019 257.35399238 661.28788484 269.50265363 661.28463173 281.65134811 C661.28442551 282.40844249 661.28421929 283.16553686 661.28400682 283.94557349 C661.28299174 287.79091679 661.28208762 291.6362601 661.2812262 295.48160343 C661.27493519 322.67492388 661.25475176 349.86821788 661.22631836 377.06152344 C661.1987382 403.46939962 661.17750054 429.87726854 661.16479492 456.28515625 C661.16440034 457.10003736 661.16400576 457.91491848 661.16359923 458.75449296 C661.15964346 466.9383195 661.15581605 475.12214611 661.15208265 483.30597276 C661.14447526 499.97541574 661.1360115 516.64485825 661.12702942 533.31430054 C661.12661755 534.08063176 661.12620568 534.84696298 661.12578133 535.63651636 C661.0982078 586.75768878 661.0506129 637.87884579 661 689 C612.08844708 689.05138883 563.17689227 689.09914626 514.26531982 689.12702942 C513.54065639 689.12744359 512.81599296 689.12785776 512.06937004 689.12828448 C496.31799873 689.13726458 480.56662714 689.14557493 464.81525512 689.15319599 C457.09005283 689.15693778 449.36485062 689.16082747 441.63964844 689.16479492 C440.87092479 689.1651872 440.10220114 689.16557948 439.31018284 689.16598364 C414.42303379 689.17875272 389.53590527 689.20127544 364.64876864 689.22889166 C339.06000445 689.25723467 313.47125161 689.2756668 287.882472 689.28174497 C284.26280143 689.28260935 280.64313091 689.28358626 277.02346039 689.28463173 C276.3111032 689.284834 275.59874601 689.28503627 274.86480224 689.28524467 C263.42806876 689.28878078 251.99137049 689.30267046 240.55465133 689.3204961 C229.03856177 689.33822217 217.52252053 689.34464618 206.00641528 689.34050413 C199.77417714 689.33858781 193.54204181 689.34146955 187.30982208 689.35761642 C181.59214804 689.3723212 175.87464499 689.37288434 170.15696272 689.36269668 C168.10008944 689.36143939 166.04320506 689.36515468 163.98635331 689.37464955 C120.25045161 689.56462905 80.96201406 675.3003803 49 645 C48.05382812 644.11828125 47.10765625 643.2365625 46.1328125 642.328125 C18.49023103 616.04642299 0.85730904 577.28929112 -0.18289971 539.04997456 C-0.27632092 533.2146692 -0.25739429 527.37966705 -0.24050903 521.5438385 C-0.24138241 519.28700078 -0.24313581 517.03016326 -0.24568737 514.77332681 C-0.25013898 508.60473465 -0.24218738 502.43621252 -0.23213124 496.26762927 C-0.22435851 490.28865764 -0.22605464 484.3096906 -0.22749493 478.33071575 C-0.23011503 466.10962352 -0.22346927 453.88855302 -0.21146011 441.66746712 C-0.19960784 429.57492019 -0.19192455 417.48238233 -0.18975449 405.38982964 C-0.18961701 404.63668808 -0.18947953 403.88354653 -0.18933788 403.1075825 C-0.18866117 399.28243246 -0.18805842 395.45728241 -0.18748413 391.63213234 C-0.18328833 364.57025981 -0.16982765 337.50839909 -0.15087891 310.4465332 C-0.13249692 284.16365624 -0.11833612 257.8807825 -0.10986328 231.59790039 C-0.10960023 230.78710687 -0.10933718 229.97631334 -0.10906615 229.14095032 C-0.10642901 220.99829508 -0.1038774 212.85563982 -0.10138843 204.71298453 C-0.09631662 188.1268884 -0.09067412 171.54079248 -0.08468628 154.95469666 C-0.0844117 154.19217003 -0.08413712 153.42964341 -0.08385422 152.64400991 C-0.06546685 101.76266828 -0.03373637 50.88133351 0 0 Z " fill="#3679B4" transform="translate(86,72)"/>
  <path d="M0 0 C0.88381348 0.10151367 1.76762695 0.20302734 2.67822266 0.30761719 C40.65012939 4.70412071 81.0603311 18.51228507 110 44 C110.64453125 44.56074219 111.2890625 45.12148437 111.953125 45.69921875 C122.11005363 55.14699245 126.55127115 65.72215148 129 79 C129.33644531 80.66289062 129.33644531 80.66289062 129.6796875 82.359375 C135.12773675 113.55505425 128.18635755 144.62161569 110.72070312 170.92675781 C106.01507448 177.60817044 100.61418932 183.73374584 95.078125 189.734375 C93.18181669 191.8017788 91.36970394 193.91750093 89.5625 196.0625 C69.52992846 218.86601681 40.85015986 234.5920893 14.4375 248.75 C13.6218457 249.19279297 12.80619141 249.63558594 11.96582031 250.09179688 C11.21268555 250.48947266 10.45955078 250.88714844 9.68359375 251.296875 C9.01900146 251.65104492 8.35440918 252.00521484 7.66967773 252.37011719 C7.11868408 252.57797852 6.56769043 252.78583984 6 253 C5.34 252.67 4.68 252.34 4 252 C4.85658203 251.03126953 4.85658203 251.03126953 5.73046875 250.04296875 C13.01191515 241.58074726 19.26966983 232.56761467 25.46435547 223.28955078 C26.83704838 221.24295077 28.22745347 219.21055065 29.62890625 217.18359375 C51.20724553 185.78796639 73.33183149 146.40094999 70 107 C69.16972676 102.99571077 67.89612904 99.61449598 66 96 C65.5875 95.21367187 65.175 94.42734375 64.75 93.6171875 C55.6354974 78.34003825 38.24264618 72.77126845 21.96191406 68.45458984 C18.99169033 67.76636727 16.02572876 67.36735349 13 67 C13.06767578 68.35931641 13.06767578 68.35931641 13.13671875 69.74609375 C13.12978602 75.29088763 11.87959524 80.64276911 10.8125 86.0625 C8.96050307 95.73061838 7.25397714 105.40677113 5.6875 115.125 C-2.06429273 162.49637375 -12.48549601 209.48486131 -24.5703125 255.9296875 C-24.78025345 256.73814117 -24.9901944 257.54659485 -25.20649719 258.37954712 C-26.21393221 262.25515618 -27.22867947 266.12856505 -28.25756836 269.99853516 C-28.6210718 271.38440318 -28.98444181 272.77030621 -29.34765625 274.15625 C-29.66742432 275.36087891 -29.98719238 276.56550781 -30.31665039 277.80664062 C-30.940872 280.72368909 -31.36253992 283.04388072 -31 286 C-29.88694402 287.7066793 -29.88694402 287.7066793 -28.2109375 289.05859375 C-27.30359863 289.87360352 -27.30359863 289.87360352 -26.37792969 290.70507812 C-25.71696289 291.27677734 -25.05599609 291.84847656 -24.375 292.4375 C-22.990409 293.68422558 -21.60763959 294.93297671 -20.2265625 296.18359375 C-19.52047852 296.81765137 -18.81439453 297.45170898 -18.08691406 298.10498047 C-7.99622317 307.26781888 0.90802164 317.04357747 9 328 C9.43296387 328.5775 9.86592773 329.155 10.31201172 329.75 C31.39571316 357.93500036 45.37416553 390.76933226 40.25 426.5 C36.09473421 447.24747294 23.15526649 463.93458101 9 479 C7.78480497 480.38986372 6.57581213 481.78519105 5.375 483.1875 C0.13870747 489.19636028 -5.51874909 494.71917564 -11.56640625 499.90625 C-13.48555702 501.55739737 -15.38482659 503.22496807 -17.27734375 504.90625 C-26.17620185 512.77455059 -35.40018017 520.01065749 -45 527 C-45.73154297 527.53657227 -46.46308594 528.07314453 -47.21679688 528.62597656 C-57.30120682 536.02207912 -67.47604965 543.24120199 -78 550 C-78.74491699 550.47872559 -79.48983398 550.95745117 -80.25732422 551.45068359 C-100.14675902 564.15478129 -120.71346015 576.35408324 -142.39076233 585.77104187 C-145.09940604 587.00141645 -145.09940604 587.00141645 -147.95539856 588.71473694 C-159.32214739 594.90026426 -169.51945159 594.91814782 -182.24609375 594.68359375 C-184.35456178 594.67050776 -186.46305137 594.66055781 -188.57154846 594.65357971 C-194.07110296 594.62709029 -199.56932473 594.55853647 -205.06835938 594.48065186 C-210.69968649 594.40852598 -216.33123291 594.37696358 -221.96289062 594.34179688 C-232.97584 594.26714394 -243.98780838 594.14796681 -255 594 C-253.73700312 590.75436799 -252.46486924 587.97572101 -250.453125 585.12890625 C-249.69080566 584.03690918 -249.69080566 584.03690918 -248.91308594 582.92285156 C-248.0898584 581.75447754 -248.0898584 581.75447754 -247.25 580.5625 C-233.41931742 560.63852515 -220.92983906 539.90899748 -208.83203125 518.90234375 C-206.94930224 515.63508279 -205.0502634 512.37821084 -203.13671875 509.12890625 C-202.66347168 508.32163086 -202.19022461 507.51435547 -201.70263672 506.68261719 C-200.82414217 505.18482565 -199.94211192 503.6890973 -199.05517578 502.19628906 C-195.04121371 495.33083583 -191.54607 488.21588985 -188.03036499 481.08718872 C-187.04239976 479.08588831 -186.04908911 477.08734324 -185.05395508 475.08959961 C-171.458181 447.75730397 -159.37689163 420.10211358 -150 391 C-149.67128906 389.98599121 -149.34257812 388.97198242 -149.00390625 387.92724609 C-144.2682586 373.12359251 -141.17248092 358.3809927 -139 343 C-138.82581543 341.93579834 -138.65163086 340.87159668 -138.47216797 339.77514648 C-137.91703559 335.33667078 -137.79001874 330.97601328 -137.71875 326.5078125 C-137.70034058 325.60360565 -137.68193115 324.6993988 -137.66296387 323.76779175 C-137.60460242 320.88692315 -137.55173992 318.00599458 -137.5 315.125 C-137.44794036 312.27972153 -137.3944707 309.4345003 -137.33703613 306.58932495 C-137.3015337 304.82711835 -137.26890665 303.06484973 -137.2401123 301.30252075 C-137.13036553 295.80771117 -136.85589365 290.3316695 -136.51708984 284.84667969 C-136.00177083 276.44534821 -135.67018341 268.04687457 -135.4453125 259.6328125 C-135.4139086 258.48016592 -135.4139086 258.48016592 -135.38187027 257.30423355 C-134.82913136 236.39419541 -134.84810536 215.48034351 -134.86962891 194.56445312 C-134.87530457 189.00909668 -134.87195449 183.45378845 -134.86617661 177.89843369 C-134.84563063 154.39234836 -134.98519264 130.90441934 -135.65060425 107.40670776 C-135.97120054 95.93459513 -136.05382856 84.47649637 -136 73 C-137.46861074 73.48861225 -138.93714196 73.97746348 -140.40563965 74.46641541 C-141.63233494 74.87472044 -141.63233494 74.87472044 -142.88381195 75.29127407 C-155.88377092 79.64338478 -167.56937335 84.88088633 -178 94 C-178.62519531 94.54269531 -179.25039063 95.08539063 -179.89453125 95.64453125 C-189.26960608 104.36600609 -194.98704756 116.64767874 -195.49609375 129.4453125 C-195.50253008 131.67195136 -195.48228722 133.89880231 -195.4375 136.125 C-195.42211182 137.30932617 -195.40672363 138.49365234 -195.39086914 139.71386719 C-194.99652962 157.78223366 -190.74950133 173.92687479 -185 191 C-184.70496582 191.88059082 -184.40993164 192.76118164 -184.10595703 193.66845703 C-174.88990709 220.6441256 -160.42682849 245.71226999 -142.37451172 267.7409668 C-140.21339891 270.37875886 -138.35608638 272.8583999 -137 276 C-141.26020736 274.45376217 -145.07112768 272.33471728 -148.9375 270 C-149.59137695 269.60554688 -150.24525391 269.21109375 -150.91894531 268.8046875 C-161.92480012 262.07094661 -172.19540042 254.38255842 -182 246 C-182.77214844 245.34 -183.54429687 244.68 -184.33984375 244 C-215.57570584 216.55817773 -242.5309427 180.77743242 -246 138 C-246.64821847 124.97122428 -246.70334273 111.8061207 -244 99 C-243.74347656 97.73542969 -243.48695313 96.47085938 -243.22265625 95.16796875 C-237.08093993 66.98389631 -220.01495486 43.45635566 -196.00073242 27.66381836 C-140.98868234 -7.21541082 -62.70368905 -7.90892012 0 0 Z " fill="#FDFEFE" transform="translate(501,167)"/>
  <path d="M0 0 C10.9748858 2.53577093 20.67865609 11.15088633 26.8125 20.3125 C27.9088143 22.18898215 28.97314617 24.08462498 30 26 C30.65355469 27.175625 30.65355469 27.175625 31.3203125 28.375 C36.99516499 40.75649634 35.57029603 59.48065337 31 72 C25.14048007 86.17678294 16.23332135 98.0334977 5.73828125 109.0859375 C3.64387231 111.31479495 1.64161537 113.5672112 -0.34765625 115.88671875 C-3.92351272 119.99421987 -7.758116 123.73772878 -11.75 127.4375 C-12.4510083 128.09073242 -13.1520166 128.74396484 -13.87426758 129.41699219 C-18.54949696 133.74116399 -23.33360317 137.87527682 -28.31640625 141.84375 C-30.7609314 143.80790994 -33.14748687 145.82732956 -35.5234375 147.87353516 C-49.35613258 159.76206181 -64.15720245 170.42073192 -79 181 C-79.72751465 181.51981445 -80.4550293 182.03962891 -81.20458984 182.57519531 C-95.97627586 193.11931668 -111.07612266 203.10259903 -126.33691406 212.921875 C-127.89972784 213.93499679 -129.45032946 214.96688631 -131 216 C-133.29692078 216.24050903 -133.29692078 216.24050903 -136.0222168 216.22705078 C-137.04304855 216.22689972 -138.06388031 216.22674866 -139.11564636 216.22659302 C-140.21572525 216.21627045 -141.31580414 216.20594788 -142.44921875 216.1953125 C-144.14084892 216.19106766 -144.14084892 216.19106766 -145.86665344 216.18673706 C-149.47370958 216.17552916 -153.08051873 216.15042323 -156.6875 216.125 C-159.13085579 216.114971 -161.57421547 216.10584501 -164.01757812 216.09765625 C-170.01180323 216.07558783 -176.00588397 216.04210417 -182 216 C-178.4304824 212.39511083 -174.7646064 209.0039122 -170.875 205.75 C-170.30370361 205.26821289 -169.73240723 204.78642578 -169.14379883 204.29003906 C-165.69762776 201.39213336 -162.20568306 198.56028844 -158.6875 195.75 C-151.82672237 190.16379354 -145.47710329 184.0374998 -139.06396484 177.95068359 C-136.38785237 175.42145025 -133.68908084 172.91719821 -130.98925781 170.41333008 C-122.87064435 162.87799764 -114.89862872 155.31499109 -107.6796875 146.8984375 C-106.01795424 145.02029247 -104.28874475 143.25694484 -102.5 141.5 C-98.7881281 137.83729197 -95.38988482 133.96020571 -92 130 C-91.09260636 128.94517618 -90.18504092 127.89050014 -89.27734375 126.8359375 C-86.6928317 123.83035564 -84.11606638 120.81823428 -81.54199219 117.80371094 C-80.07519428 116.08795684 -78.60425967 114.37582907 -77.1328125 112.6640625 C-70.82428559 105.29985917 -64.83571731 97.7427312 -59 90 C-58.26233398 89.02595215 -58.26233398 89.02595215 -57.50976562 88.03222656 C-51.52067332 80.12316803 -45.61460055 72.18093085 -40 64 C-39.18549014 62.83421996 -38.37033305 61.66889198 -37.5546875 60.50390625 C-23.98663591 41.05061994 -11.39797311 20.80075875 0 0 Z " fill="#3C7CB5" transform="translate(435,545)"/>
  <path d="M0 0 C33 0 66 0 100 0 C107.1640502 15.76091044 110.21888096 31.18636042 104.9375 48.125 C98.41268079 64.86655294 87.4923381 75.62744208 71.4375 83.25 C57.58973409 89.04000665 41.85764378 88.41282232 27.875 83.25 C22.8156037 81.08512361 18.41162453 78.26940279 14 75 C13.40574219 74.58363281 12.81148438 74.16726562 12.19921875 73.73828125 C2.10036968 66.00743817 -5.09527036 53.04421486 -7.25 40.6875 C-9.16611461 25.65470991 -7.60259624 13.30454341 0 0 Z " fill="#FCFDFE" transform="translate(391,72)"/>
  <path d="M0 0 C0 0.66 0 1.32 0 2 C0.66 2 1.32 2 2 2 C2.06058594 3.21558594 2.12117188 4.43117187 2.18359375 5.68359375 C2.26798332 7.26824228 2.3526321 8.85287702 2.4375 10.4375 C2.47681641 11.23994141 2.51613281 12.04238281 2.55664062 12.86914062 C2.4054296 16.75239561 2.4054296 16.75239561 4 20 C4.09762224 22.34027124 4.12997604 24.65098381 4.12025452 26.99171448 C4.12110894 27.73169188 4.12196337 28.47166928 4.12284368 29.23407024 C4.12450069 31.73232413 4.11897353 34.23051198 4.11352539 36.72875977 C4.11324354 38.51213581 4.11340121 40.29551197 4.1139679 42.07888794 C4.11425596 46.93612191 4.10835788 51.79333141 4.10139394 56.65055966 C4.09516179 61.72080948 4.09455671 66.79105981 4.09336853 71.86131287 C4.0902548 81.46963693 4.08204086 91.07794968 4.07201904 100.68626875 C4.06085919 111.62199528 4.05534778 122.55772234 4.05032361 133.49345315 C4.03985828 155.99564172 4.02225804 178.49782022 4 201 C-2.64330622 195.52231118 -2.64330622 195.52231118 -4.7890625 192.6796875 C-5.24925781 192.0724585 -5.70945312 191.46522949 -6.18359375 190.83959961 C-6.65925781 190.19128174 -7.13492188 189.54296387 -7.625 188.875 C-8.39650391 187.83001343 -8.39650391 187.83001343 -9.18359375 186.76391602 C-37.6587772 147.64951029 -60.47079257 98.4385592 -56 49 C-54.23779513 39.37974563 -49.68876361 31.10323828 -43 24 C-42.41734375 23.32839844 -41.8346875 22.65679687 -41.234375 21.96484375 C-32.36319647 12.29227724 -13.82969545 0 0 0 Z " fill="#1261A7" transform="translate(361,241)"/>
  <path d="M0 0 C100.65 0 201.3 0 305 0 C303.35 3.96 301.7 7.92 300 12 C299.34 11.67 298.68 11.34 298 11 C298 8.69 298 6.38 298 4 C299.485 3.505 299.485 3.505 301 3 C301.33 2.34 301.66 1.68 302 1 C284.675 1.495 284.675 1.495 267 2 C179.55 2 92.1 2 2 2 C2 180.86 2 359.72 2 544 C1.34 544 0.68 544 0 544 C0 364.48 0 184.96 0 0 Z " fill="#145893" transform="translate(86,72)"/>
  <path d="M0 0 C100.65 0 201.3 0 305 0 C303.35 3.96 301.7 7.92 300 12 C299.34 11.67 298.68 11.34 298 11 C298 8.69 298 6.38 298 4 C299.485 3.505 299.485 3.505 301 3 C301.33 2.34 301.66 1.68 302 1 C301.26350818 1.02978156 300.52701635 1.05956312 299.7682066 1.09024715 C270.41913037 2.2193568 241.06575351 2.1334527 211.70010494 2.10353777 C204.34196214 2.09624807 196.98382124 2.09487528 189.62567534 2.09374207 C176.51208434 2.09157314 163.39849968 2.08497281 150.28491211 2.07543945 C137.57397492 2.06620863 124.86303949 2.05915583 112.15209961 2.05493164 C111.36376711 2.05466892 110.57543462 2.05440619 109.76321325 2.05413551 C105.80693845 2.05283013 101.85066362 2.0515665 97.89438879 2.05032361 C65.26292125 2.04001851 32.63146149 2.02246043 0 2 C0 1.34 0 0.68 0 0 Z " fill="#1A6099" transform="translate(86,72)"/>
  <path d="M0 0 C0.33 0 0.66 0 1 0 C1.64541979 5.93786205 0.05880388 9.4805115 -2.80859375 14.66796875 C-4.06565257 16.90872679 -4.06565257 16.90872679 -4.53515625 19.17578125 C-5 21 -5 21 -7 23 C-7.29003906 23.76183594 -7.58007812 24.52367187 -7.87890625 25.30859375 C-9.16020881 28.3846128 -10.81281997 30.50259687 -12.9375 33.0625 C-16.29501833 37.13545214 -19.49666921 41.26649259 -22.5625 45.5625 C-23.18318359 46.43068359 -23.18318359 46.43068359 -23.81640625 47.31640625 C-24.90206547 48.86069379 -25.95288235 50.42932353 -27 52 C-27.99237043 52.90715303 -29.01696329 53.77967244 -30.0625 54.625 C-38.49732356 61.24776777 -38.49732356 61.24776777 -44 70 C-45.32338632 70.68620031 -46.65949948 71.34786461 -48 72 C-50.03613979 73.63776461 -52.02254382 75.29529639 -54 77 C-55.08202454 77.89741371 -56.16531868 78.7932993 -57.25 79.6875 C-60.67807996 82.39571298 -60.67807996 82.39571298 -62.75 86.0625 C-63.36875 87.0215625 -63.36875 87.0215625 -64 88 C-64.89847656 88.10054687 -65.79695313 88.20109375 -66.72265625 88.3046875 C-70.95572264 89.20276356 -72.63926662 91.03977485 -75.6875 94.0625 C-80.69424965 99 -80.69424965 99 -84 99 C-84.226875 99.61875 -84.45375 100.2375 -84.6875 100.875 C-86.38416443 103.6219805 -88.05251711 103.86635273 -91 105 C-91.33 105.99 -91.66 106.98 -92 108 C-95.23306391 109.61653196 -98.45028204 110.39147692 -102 111 C-98.92722168 107.71940092 -95.55757981 105.16534432 -91.875 102.625 C-56.87709171 77.99995448 -14.32014054 45.51909269 -1 3 C-0.67 2.01 -0.34 1.02 0 0 Z " fill="#6795BC" transform="translate(540,596)"/>
  <path d="M0 0 C0.99 0 1.98 0 3 0 C3.70978365 13.14877201 4.25544678 26.28859006 4.5546875 39.453125 C4.57562344 40.35296364 4.59655937 41.25280228 4.61812973 42.17990875 C5.12352095 64.44732091 5.15313363 86.71464533 5.13037109 108.98681641 C5.12460572 114.67466178 5.12801895 120.36246063 5.13394356 126.05030441 C5.13759206 130.53935078 5.13639225 135.02838644 5.13381577 139.51743317 C5.13316189 141.61406714 5.13391905 143.71070217 5.13629532 145.8073349 C5.14910176 160.23004234 4.74154946 174.59615515 4 189 C3.34 188.67 2.68 188.34 2 188 C2.00092179 187.1402485 2.00184359 186.280497 2.00279331 185.39469242 C2.02484652 164.50630523 2.04141056 143.61792003 2.05181217 122.72952366 C2.05697559 112.62819057 2.06401915 102.52686523 2.07543945 92.42553711 C2.0853849 83.62455536 2.09185309 74.82357922 2.09408849 66.02259201 C2.09539584 61.35953733 2.09848318 56.69649872 2.10573006 52.03344917 C2.11248809 47.64967634 2.11461741 43.26592629 2.11310768 38.88214874 C2.11338411 37.26839766 2.11539052 35.65464587 2.11920547 34.04089928 C2.12413934 31.8473111 2.12299944 29.6538103 2.12025452 27.46022034 C2.12117631 26.2296267 2.1220981 24.99903307 2.12304783 23.73114872 C2.31158701 21.08673206 2.31158701 21.08673206 1 20 C0.92674832 17.13732433 0.90761795 14.299281 0.9375 11.4375 C0.94201172 10.63119141 0.94652344 9.82488281 0.95117188 8.99414062 C0.96299482 6.99606244 0.98093086 4.99802217 1 3 C0.34 3 -0.32 3 -1 3 C-0.67 2.01 -0.34 1.02 0 0 Z " fill="#4177A8" transform="translate(362,240)"/>
  <path d="M0 0 C13.88196795 -0.0467221 27.7639237 -0.08185691 41.64595413 -0.10362434 C48.09163384 -0.11407053 54.53726081 -0.12824506 60.98291016 -0.15087891 C67.20095083 -0.17257736 73.41894069 -0.18456233 79.6370163 -0.18975449 C82.01172434 -0.19345562 84.38642955 -0.20068282 86.76111603 -0.21146011 C90.08201653 -0.22593505 93.40270594 -0.2279796 96.72363281 -0.22705078 C97.70978073 -0.23424133 98.69592865 -0.24143188 99.71195984 -0.24884033 C100.61777298 -0.246091 101.52358612 -0.24334167 102.45684814 -0.24050903 C103.24221577 -0.24235262 104.02758339 -0.24419621 104.83675003 -0.24609566 C107.26353285 0.02998003 108.89451715 0.79150958 111 2 C97.34424511 2.02313041 83.68849484 2.04091867 70.03272438 2.05181217 C63.69238215 2.05703946 57.35205329 2.06413434 51.01171875 2.07543945 C44.89743289 2.08627377 38.78315992 2.092278 32.6688652 2.09487724 C30.33158541 2.0967305 27.99430635 2.10034924 25.65703201 2.10573006 C22.3932465 2.11294767 19.12951481 2.11399063 15.86572266 2.11352539 C14.40376717 2.1189183 14.40376717 2.1189183 12.91227722 2.12442017 C12.02604172 2.1230455 11.13980621 2.12167084 10.22671509 2.12025452 C9.06802131 2.12163721 9.06802131 2.12163721 7.88591957 2.12304783 C6 2 6 2 4 1 C3.67 1.99 3.34 2.98 3 4 C2.01 3.34 1.02 2.68 0 2 C0 1.34 0 0.68 0 0 Z " fill="#25669F" transform="translate(491,72)"/>
  <path d="M0 0 C0.495 1.485 0.495 1.485 1 3 C-3.17386394 6.7666577 -6.76709306 8.81169346 -12 11 C-13.7074998 12.28062485 -15.38263741 13.6072711 -17 15 C-20 17 -20 17 -22 17 C-22.7425 17.61875 -23.485 18.2375 -24.25 18.875 C-28.7461344 22.34928567 -33.4574629 23.20820899 -39 24 C-35.61302114 21.16519573 -32.23166511 18.87650282 -28.359375 16.7578125 C-27.28816406 16.16613281 -26.21695312 15.57445312 -25.11328125 14.96484375 C-23.44845703 14.05412109 -23.44845703 14.05412109 -21.75 13.125 C-14.28148845 9.03447247 -6.98574279 4.87925195 0 0 Z " fill="#5A8BB5" transform="translate(418,719)"/>
  <path d="M0 0 C1.40646702 2.68610287 2.5106218 5.32045835 3.4453125 8.203125 C6.54270215 17.52129902 9.85990988 26.39583912 14.51025391 35.06152344 C17 39.7302598 17 39.7302598 17 43 C16.34 43 15.68 43 15 43 C11.32685976 36.66995498 8.21932448 30.44275175 5.859375 23.5078125 C5.274333 21.80055358 4.62796966 20.11337295 3.9296875 18.44921875 C2.60775422 14.96664662 2.37607221 11.69804336 2 8 C1.34 8 0.68 8 0 8 C0 5.36 0 2.72 0 0 Z " fill="#25679D" transform="translate(257,320)"/>
  <path d="M0 0 C0.66 0 1.32 0 2 0 C2 0.66 2 1.32 2 2 C2.99 2 3.98 2 5 2 C5.33 1.34 5.66 0.68 6 0 C7.32 0.66 8.64 1.32 10 2 C9.31075439 2.26627197 8.62150879 2.53254395 7.91137695 2.80688477 C-9.37742464 9.42389733 -9.37742464 9.42389733 -25.83984375 17.8203125 C-28 19 -28 19 -30 19 C-29.505 17.515 -29.505 17.515 -29 16 C-26.67793475 15.29508733 -24.34406932 14.62787571 -22 14 C-21.67 13.34 -21.34 12.68 -21 12 C-20.01 12 -19.02 12 -18 12 C-17.76539063 11.35546875 -17.53078125 10.7109375 -17.2890625 10.046875 C-16 8 -16 8 -13.8359375 7.390625 C-13.02382813 7.34421875 -12.21171875 7.2978125 -11.375 7.25 C-10.55773437 7.19328125 -9.74046875 7.1365625 -8.8984375 7.078125 C-8.27195312 7.05234375 -7.64546875 7.0265625 -7 7 C-7 6.01 -7 5.02 -7 4 C-5.35 4 -3.7 4 -2 4 C-1.34 2.68 -0.68 1.36 0 0 Z " fill="#1B5E9B" transform="translate(334,176)"/>
  <path d="M0 0 C0.66 0 1.32 0 2 0 C5.8064579 11.41937369 7.19886518 21.4689633 7.25 33.5 C7.259104 34.56307373 7.26820801 35.62614746 7.27758789 36.72143555 C7.27364014 37.73117432 7.26969238 38.74091309 7.265625 39.78125 C7.26336914 40.68939453 7.26111328 41.59753906 7.25878906 42.53320312 C6.98694038 45.12448526 6.31071955 46.76904338 5 49 C4.67 49 4.34 49 4 49 C4.01571045 48.33693848 4.0314209 47.67387695 4.04760742 46.99072266 C4.3352274 32.93981939 3.84744556 19.76511248 1 6 C0.65759743 4.00153269 0.32070387 2.00206397 0 0 Z " fill="#6892B6" transform="translate(537,544)"/>
  <path d="M0 0 C0.33 0 0.66 0 1 0 C1.22174933 1.45635371 1.42698698 2.91522956 1.625 4.375 C1.74101562 5.18710937 1.85703125 5.99921875 1.9765625 6.8359375 C1.98429687 7.55007813 1.99203125 8.26421875 2 9 C1.34 9.66 0.68 10.32 0 11 C-0.37362483 14.0241967 -0.37362483 14.0241967 -0.4140625 17.58984375 C-0.43342865 18.24900284 -0.4527948 18.90816193 -0.4727478 19.58729553 C-0.53254085 21.70389754 -0.578765 23.82056297 -0.625 25.9375 C-0.66321095 27.32879969 -0.70226449 28.72007651 -0.7421875 30.11132812 C-0.95149861 37.74102287 -1.05464291 45.3671955 -1 53 C-1.33 53 -1.66 53 -2 53 C-3.01323129 46.27214422 -3.19210848 39.67353294 -3.1875 32.875 C-3.18737915 31.21537231 -3.18737915 31.21537231 -3.18725586 29.5222168 C-3.13137682 21.49739812 -2.52444823 13.88929779 -1 6 C-0.66327796 4.00056774 -0.32900668 2.0007163 0 0 Z " fill="#E2F9FD" transform="translate(258,260)"/>
  <path d="M0 0 C3.11173483 1.03724494 4.10466125 1.41544715 6 4 C6.6875 7.6875 6.6875 7.6875 7 11 C7.66 11 8.32 11 9 11 C9 11.66 9 12.32 9 13 C9.66 13 10.32 13 11 13 C11.73503154 15.20509463 12.469377 17.41036743 13.19921875 19.6171875 C13.83351259 21.50459845 14.5041539 23.37978962 15.1875 25.25 C15.99685565 27.9893576 16.1669151 30.16244331 16 33 C14.44660573 30.6699086 13.36070101 28.72184481 12.265625 26.19140625 C11.77932617 25.07838135 11.77932617 25.07838135 11.28320312 23.94287109 C10.94224609 23.15734863 10.60128906 22.37182617 10.25 21.5625 C7.04548401 14.25532156 3.66892219 7.0876906 0 0 Z " fill="#598AB2" transform="translate(521,511)"/>
  <path d="M0 0 C4.77994882 4.77994882 3.24647459 13.12306922 3.25317383 19.42138672 C3.16150124 28.35249718 2.98852018 37.85403474 -3 45 C-2.88487847 43.27014758 -2.75744323 41.54111249 -2.625 39.8125 C-2.55539062 38.84957031 -2.48578125 37.88664063 -2.4140625 36.89453125 C-1.99433556 33.96040239 -1.11333914 31.73235522 0 29 C2.00666983 19.50006942 1.20946913 9.56776475 0 0 Z " fill="#5888B4" transform="translate(466,576)"/>
  <path d="M0 0 C0.33 0 0.66 0 1 0 C1.54720043 9.7077409 -0.89590534 16.8000605 -4.8828125 25.515625 C-7.03251131 30.29607411 -8.99989779 35.15549013 -11 40 C-11.66 39.67 -12.32 39.34 -13 39 C-11.62245646 34.65745799 -9.97204218 30.53802252 -8.125 26.375 C-4.42407632 17.87318419 -0.84578356 9.30361915 0 0 Z " fill="#5689B3" transform="translate(630,290)"/>
  <path d="M0 0 C0.99 0 1.98 0 3 0 C3.74136918 12.68270851 4.13809004 25.29571603 4 38 C3.67 38 3.34 38 3 38 C2.93941406 36.78441406 2.87882812 35.56882812 2.81640625 34.31640625 C2.73201668 32.73175772 2.6473679 31.14712298 2.5625 29.5625 C2.52318359 28.76005859 2.48386719 27.95761719 2.44335938 27.13085938 C2.5945704 23.24760439 2.5945704 23.24760439 1 20 C0.92674832 17.13732433 0.90761795 14.299281 0.9375 11.4375 C0.94201172 10.63119141 0.94652344 9.82488281 0.95117188 8.99414062 C0.96299482 6.99606244 0.98093086 4.99802217 1 3 C0.34 3 -0.32 3 -1 3 C-0.67 2.01 -0.34 1.02 0 0 Z " fill="#3773A7" transform="translate(362,240)"/>
  <path d="M0 0 C3.59476701 3.49205938 6.92026191 7.04033675 10 11 C10 11.66 10 12.32 10 13 C5.02790438 11.23570801 0.56561939 8.6060834 -4 6 C-2.68 4.02 -1.36 2.04 0 0 Z " fill="#DFF2FA" transform="translate(354,430)"/>
  <path d="M0 0 C0.33 0 0.66 0 1 0 C1 9.9 1 19.8 1 30 C0.34 30 -0.32 30 -1 30 C-2.00665987 26.70963252 -2.05787358 23.85784806 -1.9140625 20.4296875 C-1.87023437 19.36878906 -1.82640625 18.30789063 -1.78125 17.21484375 C-1.7296875 16.11269531 -1.678125 15.01054687 -1.625 13.875 C-1.58117187 12.76511719 -1.53734375 11.65523438 -1.4921875 10.51171875 C-1.13039261 2.26078521 -1.13039261 2.26078521 0 0 Z " fill="#1F659A" transform="translate(254,279)"/>
  <path d="M0 0 C0.33 0 0.66 0 1 0 C1.01458252 0.6798999 1.02916504 1.3597998 1.04418945 2.06030273 C1.1193642 5.18656282 1.21579232 8.31183482 1.3125 11.4375 C1.33505859 12.50677734 1.35761719 13.57605469 1.38085938 14.67773438 C1.58042297 20.61021575 2.15610978 25.58557495 4.46557617 31.08227539 C5.11078734 33.39754892 4.75406071 34.74973235 4 37 C-1.57363261 26.10608171 -2.68987376 11.87848251 0 0 Z " fill="#CFEBF7" transform="translate(384,89)"/>
  <path d="M0 0 C0.33 0 0.66 0 1 0 C0.46651846 5.1201216 -0.72994192 9.1435303 -2.875 13.8125 C-5.1493366 18.85538845 -6.99380115 23.84102632 -8.359375 29.20703125 C-9 31 -9 31 -11 32 C-11.3935986 27.80161489 -10.31641577 24.77676312 -8.75390625 20.96484375 C-7.9976267 18.99381467 -7.50764709 17.04683307 -7 15 C-5.30057119 10.75142798 -3.38201404 6.89784116 -1 3 C-0.67 2.01 -0.34 1.02 0 0 Z " fill="#175E9A" transform="translate(268,229)"/>
  <path d="M0 0 C-0.92870936 3.12384058 -1.53187759 4.674915 -4.25 6.5625 C-5.1575 7.036875 -6.065 7.51125 -7 8 C-7.99 8.70125 -8.98 9.4025 -10 10.125 C-12.83301344 11.8956334 -14.72417353 12.61460865 -18 13 C-16.70350461 9.11051384 -15.15090129 8.59180263 -11.6875 6.5 C-7.62968046 4.03522186 -7.62968046 4.03522186 -3.76953125 1.28125 C-2 0 -2 0 0 0 Z " fill="#608FB4" transform="translate(438,707)"/>
  <path d="M0 0 C0 0.99 0 1.98 0 3 C-3.33333333 4.66666667 -6.66666667 6.33333333 -10 8 C-10 8.66 -10 9.32 -10 10 C-13.3 10 -16.6 10 -20 10 C-17.94358996 7.94358996 -16.50084948 7.20459625 -13.8671875 6.0546875 C-13.06152344 5.70019531 -12.25585938 5.34570312 -11.42578125 4.98046875 C-10.58402344 4.61566406 -9.74226563 4.25085938 -8.875 3.875 C-8.02550781 3.50246094 -7.17601562 3.12992188 -6.30078125 2.74609375 C-4.20231004 1.82653895 -2.10203658 0.91136807 0 0 Z " fill="#5287B1" transform="translate(361,751)"/>
  <path d="M0 0 C0.99 0.66 1.98 1.32 3 2 C3.1875 5.125 3.1875 5.125 3 8 C3.99 8.33 4.98 8.66 6 9 C6 9.99 6 10.98 6 12 C6.99 12.33 7.98 12.66 9 13 C9 13.99 9 14.98 9 16 C9.99 16.33 10.98 16.66 12 17 C11.34 17.66 10.68 18.32 10 19 C6.04 14.05 2.08 9.1 -2 4 C-1.34 2.68 -0.68 1.36 0 0 Z " fill="#1D61A5" transform="translate(115,688)"/>
  <path d="M0 0 C0.33 0.66 0.66 1.32 1 2 C0.0625 4.125 0.0625 4.125 -1 6 C-0.236875 5.649375 0.52625 5.29875 1.3125 4.9375 C4 4 4 4 7 5 C4.71296692 6.19725883 2.42115138 7.38297018 0.125 8.5625 C-0.52597656 8.90474609 -1.17695312 9.24699219 -1.84765625 9.59960938 C-3.53529857 10.46082891 -5.26579593 11.23686703 -7 12 C-7.66 11.67 -8.32 11.34 -9 11 C-6.03 7.37 -3.06 3.74 0 0 Z " fill="#DFF3FC" transform="translate(514,408)"/>
  <path d="M0 0 C2.0625 0.4375 2.0625 0.4375 4 1 C3.31164062 1.56267578 3.31164062 1.56267578 2.609375 2.13671875 C-0.33163295 4.58961824 -2.85565257 6.81028623 -5.1875 9.875 C-5.785625 10.57625 -6.38375 11.2775 -7 12 C-8.32 12 -9.64 12 -11 12 C-9.55928394 8.58301375 -7.76769435 6.68041215 -4.9375 4.3125 C-3.86822266 3.40951172 -3.86822266 3.40951172 -2.77734375 2.48828125 C-1.89755859 1.75158203 -1.89755859 1.75158203 -1 1 C-0.67 0.67 -0.34 0.34 0 0 Z " fill="#21659F" transform="translate(484,139)"/>
  <path d="M0 0 C0.66 0.99 1.32 1.98 2 3 C1.25 5.375 1.25 5.375 0 8 C-0.4021875 9.3303125 -0.4021875 9.3303125 -0.8125 10.6875 C-2 13 -2 13 -4.625 14.3125 C-5.40875 14.539375 -6.1925 14.76625 -7 15 C-6.31238981 11.34435091 -4.74550455 8.48132728 -2.9375 5.25 C-2.11572266 3.77273437 -2.11572266 3.77273437 -1.27734375 2.265625 C-0.64505859 1.14414063 -0.64505859 1.14414063 0 0 Z " fill="#2C6B9D" transform="translate(494,123)"/>
  <path d="M0 0 C0.33 0.99 0.66 1.98 1 3 C0.21753906 3.75925781 -0.56492187 4.51851562 -1.37109375 5.30078125 C-2.39349196 6.30441986 -3.41561299 7.30834089 -4.4375 8.3125 C-4.95376953 8.81201172 -5.47003906 9.31152344 -6.00195312 9.82617188 C-8.40590176 12.19869635 -9.91656793 13.74970379 -11 17 C-11.66 17 -12.32 17 -13 17 C-12.69029106 11.61506072 -9.64569893 9.17532596 -5.9375 5.6875 C-5.08575195 4.86282227 -5.08575195 4.86282227 -4.21679688 4.02148438 C-2.82009075 2.67172635 -1.41121163 1.33458475 0 0 Z " fill="#628FB4" transform="translate(507,649)"/>
  <path d="M0 0 C0 0.99 0 1.98 0 3 C-2.4375 5.125 -2.4375 5.125 -5 7 C-5.33 7.33 -5.66 7.66 -6 8 C-7.99958364 8.04080783 -10.00045254 8.04254356 -12 8 C-12 8.66 -12 9.32 -12 10 C-13.65 10.33 -15.3 10.66 -17 11 C-17 10.34 -17 9.68 -17 9 C-11.39 6.03 -5.78 3.06 0 0 Z " fill="#467DB0" transform="translate(532,406)"/>
  <path d="M0 0 C1 3 1 3 0 6 C-0.9075 6.268125 -1.815 6.53625 -2.75 6.8125 C-7.03435049 8.37793575 -8.32136934 10.37597029 -11 14 C-12.32 13.67 -13.64 13.34 -15 13 C-10.05 8.71 -5.1 4.42 0 0 Z " fill="#E8F8FC" transform="translate(411,682)"/>
  <path d="M0 0 C0.33 0 0.66 0 1 0 C1.08132187 2.56314499 1.14064175 5.12368418 1.1875 7.6875 C1.22520508 8.7693457 1.22520508 8.7693457 1.26367188 9.87304688 C1.32614409 14.43351838 0.91641976 17.41979462 -2 21 C-2.66 21 -3.32 21 -4 21 C-3.87882812 20.40574219 -3.75765625 19.81148437 -3.6328125 19.19921875 C-2.34170672 12.81321092 -1.14614408 6.41352965 0 0 Z " fill="#24639C" transform="translate(499,101)"/>
  <path d="M0 0 C4.51118617 6.76677925 4.26577127 14.14929441 4.125 22 C4.11597656 22.96550781 4.10695313 23.93101563 4.09765625 24.92578125 C4.07430635 27.28412099 4.04156047 29.64192286 4 32 C3.67 32 3.34 32 3 32 C2.97494385 31.42967041 2.9498877 30.85934082 2.92407227 30.27172852 C2.80843451 27.70173843 2.68556376 25.13214473 2.5625 22.5625 C2.52318359 21.66466797 2.48386719 20.76683594 2.44335938 19.84179688 C2.40146484 18.98779297 2.35957031 18.13378906 2.31640625 17.25390625 C2.27974854 16.46314697 2.24309082 15.6723877 2.20532227 14.85766602 C2.19436743 12.98598559 2.19436743 12.98598559 1 12 C0.76572222 9.98405418 0.58663876 7.961526 0.4375 5.9375 C0.35371094 4.83277344 0.26992188 3.72804688 0.18359375 2.58984375 C0.09271484 1.30787109 0.09271484 1.30787109 0 0 Z " fill="#D5EBF5" transform="translate(494,80)"/>
  <path d="M0 0 C0.66 0 1.32 0 2 0 C-2.03872437 16.8929385 -2.03872437 16.8929385 -5 24 C-6.47888133 20.1285336 -5.46425535 17.52678905 -4.1875 13.6875 C-3.81496094 12.5428125 -3.44242188 11.398125 -3.05859375 10.21875 C-2.70925781 9.1565625 -2.35992188 8.094375 -2 7 C-1.30857852 4.67259219 -0.65263528 2.33860974 0 0 Z " fill="#467AA9" transform="translate(568,302)"/>
  <path d="M0 0 C1.32 0 2.64 0 4 0 C4 0.66 4 1.32 4 2 C6.31 2 8.62 2 11 2 C11.12375 2.639375 11.2475 3.27875 11.375 3.9375 C11.58125 4.618125 11.7875 5.29875 12 6 C12.66 6.33 13.32 6.66 14 7 C8.55432314 5.97137215 3.88182883 4.75385216 -1 2 C-0.67 1.34 -0.34 0.68 0 0 Z " fill="#3270A8" transform="translate(556,178)"/>
  <path d="M0 0 C-6.90832239 3.79215787 -15.15990705 5.53455179 -23 5 C-21.66666667 4.33333333 -20.33333333 3.66666667 -19 3 C-18.4225 2.649375 -17.845 2.29875 -17.25 1.9375 C-11.8575607 -0.30934971 -5.75595737 -0.11991578 0 0 Z " fill="#1C629B" transform="translate(368,171)"/>
  <path d="M0 0 C3.48468353 3.48468353 2.57178068 8.63781541 2.75 13.375 C2.80542969 14.42945313 2.86085938 15.48390625 2.91796875 16.5703125 C2.96050781 17.58609375 3.00304687 18.601875 3.046875 19.6484375 C3.08651367 20.57833496 3.12615234 21.50823242 3.16699219 22.46630859 C2.99037046 25.14610434 2.36787083 26.71507963 1 29 C0.67 29 0.34 29 0 29 C0 19.43 0 9.86 0 0 Z " fill="#6E96B9" transform="translate(541,564)"/>
  <path d="M0 0 C0.99 0.66 1.98 1.32 3 2 C2 4 2 4 -0.1875 5.1875 C-3.87114407 7.56140396 -6.28762357 10.59787837 -9 14 C-9.99 13.67 -10.98 13.34 -12 13 C-11.46890625 12.48050781 -10.9378125 11.96101562 -10.390625 11.42578125 C-6.68949647 7.77192991 -3.12841559 4.17122079 0 0 Z " fill="#E5F5FA" transform="translate(449,644)"/>
  <path d="M0 0 C-1.71798773 2.8384145 -3.07018456 4.68152621 -6.26953125 5.77734375 C-8.50820309 6.26033279 -10.73321986 6.67548233 -13 7 C-11.85343125 3.56029374 -11.15481722 3.1217771 -8.1875 1.25 C-7.50042969 0.80140625 -6.81335938 0.3528125 -6.10546875 -0.109375 C-3.60065169 -1.16892656 -2.50718765 -0.92399724 0 0 Z " fill="#4A7FAD" transform="translate(555,395)"/>
  <path d="M0 0 C0.33 0.99 0.66 1.98 1 3 C0.175 3.391875 -0.65 3.78375 -1.5 4.1875 C-2.325 4.785625 -3.15 5.38375 -4 6 C-4.41780879 8.62694422 -4.41780879 8.62694422 -4 11 C-4.721875 10.95875 -5.44375 10.9175 -6.1875 10.875 C-9.20729369 11.00921305 -11.26935729 11.75170619 -14 13 C-9.55618306 8.41283413 -4.79771501 4.21237287 0 0 Z " fill="#5487B0" transform="translate(588,365)"/>
  <path d="M0 0 C1.65 0.33 3.3 0.66 5 1 C3.88333826 4.34998521 3.25305075 4.79340222 0.4375 6.6875 C-0.20316406 7.12449219 -0.84382813 7.56148437 -1.50390625 8.01171875 C-1.99761719 8.33785156 -2.49132812 8.66398438 -3 9 C-3.33 8.34 -3.66 7.68 -4 7 C-3.34 7 -2.68 7 -2 7 C-2.33 6.01 -2.66 5.02 -3 4 C-1.5625 1.8125 -1.5625 1.8125 0 0 Z " fill="#4D83B3" transform="translate(387,696)"/>
  <path d="M0 0 C0.75410156 0.00451172 1.50820313 0.00902344 2.28515625 0.01367188 C4.14847127 0.02546501 6.01174555 0.04340058 7.875 0.0625 C8.205 0.7225 8.535 1.3825 8.875 2.0625 C-5.06567797 4.43538136 -5.06567797 4.43538136 -10.125 1.0625 C-6.93675432 -0.53162284 -3.49603338 -0.03924735 0 0 Z " fill="#175D98" transform="translate(402.125,163.9375)"/>
  <path d="M0 0 C4.18358477 0.55848826 7.02629569 3.04446302 10.25 5.5625 C10.80429687 5.98724609 11.35859375 6.41199219 11.9296875 6.84960938 C13.29089411 7.89398341 14.64605833 8.94622464 16 10 C14 11 14 11 12.125 10.8125 C9.39865067 9.77007231 8.0144041 8.07938488 6 6 C5.01 5.67 4.02 5.34 3 5 C3 4.34 3 3.68 3 3 C2.01 2.67 1.02 2.34 0 2 C0 1.34 0 0.68 0 0 Z " fill="#1C619D" transform="translate(397,142)"/>
  <path d="M0 0 C0 4.26804999 -0.61067235 6.41600853 -3 10 C-4.32 10 -5.64 10 -7 10 C-6.42424336 6.64749299 -5.40693737 5.06181371 -2.9375 2.75 C-2.38964844 2.22921875 -1.84179688 1.7084375 -1.27734375 1.171875 C-0.64505859 0.59179688 -0.64505859 0.59179688 0 0 Z " fill="#3573B0" transform="translate(312,708)"/>
  <path d="M0 0 C10.43935644 10.14108911 10.43935644 10.14108911 11 15 C10.01 15.495 10.01 15.495 9 16 C8.34 15.67 7.68 15.34 7 15 C6.855625 14.195625 6.71125 13.39125 6.5625 12.5625 C6.23497283 9.65559342 6.23497283 9.65559342 3 8 C1.78943339 5.37710567 0.9135378 2.74061339 0 0 Z " fill="#23679E" transform="translate(281,373)"/>
  <path d="M0 0 C-1.75 3.875 -1.75 3.875 -4 5 C-4 5.66 -4 6.32 -4 7 C-6.70879335 8.35439668 -9.00933268 8.06501451 -12 8 C-4.57142857 0 -4.57142857 0 0 0 Z " fill="#ECF8FB" transform="translate(318,752)"/>
  <path d="M0 0 C0 4.05164344 -1.61357669 5.79537442 -4 9 C-4.99 9.66 -5.98 10.32 -7 11 C-7.33 11.99 -7.66 12.98 -8 14 C-9.65 14.33 -11.3 14.66 -13 15 C-8.70214922 9.96836982 -4.36574458 4.97281557 0 0 Z " fill="#4B7EAB" transform="translate(340,678)"/>
  <path d="M0 0 C0.33 0 0.66 0 1 0 C0.91918418 3.43846747 0.80633848 6.87515312 0.6875 10.3125 C0.66494141 11.28896484 0.64238281 12.26542969 0.61914062 13.27148438 C0.5659668 14.67817383 0.5659668 14.67817383 0.51171875 16.11328125 C0.48553467 16.97735596 0.45935059 17.84143066 0.43237305 18.73168945 C-0.07665372 21.40213987 -0.92329908 22.31011183 -3 24 C-2.68860949 21.31236733 -2.37591843 18.62489631 -2.0625 15.9375 C-1.97548828 15.18533203 -1.88847656 14.43316406 -1.79882812 13.65820312 C-1.26536361 9.09411781 -0.67013702 4.54606466 0 0 Z " fill="#CAE6F3" transform="translate(363,503)"/>
  <path d="M0 0 C0.33 0.66 0.66 1.32 1 2 C-1.54172993 7.38846744 -4.25673399 10.44255049 -9 14 C-9.66 13.67 -10.32 13.34 -11 13 C-10.06027344 11.96939453 -10.06027344 11.96939453 -9.1015625 10.91796875 C-8.28429687 10.01691406 -7.46703125 9.11585938 -6.625 8.1875 C-5.81289063 7.29417969 -5.00078125 6.40085937 -4.1640625 5.48046875 C-1.90927093 3.00367326 -1.90927093 3.00367326 0 0 Z " fill="#598BB5" transform="translate(606,344)"/>
  <path d="M0 0 C0.33 0.99 0.66 1.98 1 3 C-2.16363636 7.58181818 -2.16363636 7.58181818 -5 9 C-5.33 9.66 -5.66 10.32 -6 11 C-6.98020375 12.0194119 -7.97803008 13.02246356 -9 14 C-9 9.0291691 -7.8345788 8.26983318 -4.5 4.75 C-3.6646875 3.85796875 -2.829375 2.9659375 -1.96875 2.046875 C-1.3190625 1.37140625 -0.669375 0.6959375 0 0 Z " fill="#E3F5FC" transform="translate(287,209)"/>
  <path d="M0 0 C0.28875 0.598125 0.5775 1.19625 0.875 1.8125 C2.04742026 4.19327792 2.04742026 4.19327792 4 7 C4.70626239 8.98636298 5.36893571 10.98848259 6 13 C6.37125 14.11375 6.7425 15.2275 7.125 16.375 C7.41375 17.24125 7.7025 18.1075 8 19 C7.34 19.33 6.68 19.66 6 20 C4.98914564 17.60824639 3.99120797 15.21238415 3 12.8125 C2.57074219 11.80219727 2.57074219 11.80219727 2.1328125 10.77148438 C0.60793701 7.05006206 -0.37610432 4.03528592 0 0 Z " fill="#1762A0" transform="translate(94,649)"/>
  <path d="M0 0 C0.99 0.33 1.98 0.66 3 1 C3 1.66 3 2.32 3 3 C3.66 3 4.32 3 5 3 C5 3.66 5 4.32 5 5 C5.66 5 6.32 5 7 5 C7.33 5.99 7.66 6.98 8 8 C8.66 8.33 9.32 8.66 10 9 C10.40729228 11.32156597 10.74438677 13.6568787 11 16 C8.13865759 12.53726925 5.63425466 8.99313724 3.25 5.1875 C2.63640625 4.21167969 2.0228125 3.23585938 1.390625 2.23046875 C0.93171875 1.49441406 0.4728125 0.75835937 0 0 Z " fill="#5685AF" transform="translate(510,495)"/>
  <path d="M0 0 C0.66 0 1.32 0 2 0 C1.54548816 1.73017508 1.08621143 3.45909877 0.625 5.1875 C0.36976563 6.15042969 0.11453125 7.11335937 -0.1484375 8.10546875 C-0.94766296 10.82210207 -1.9031362 13.39137175 -3 16 C-3.33 16 -3.66 16 -4 16 C-3.88512252 14.41590006 -3.75765492 12.83271037 -3.625 11.25 C-3.55539062 10.36828125 -3.48578125 9.4865625 -3.4140625 8.578125 C-2.99778857 5.98623071 -2.29003994 4.26495562 -1 2 C-0.67 1.34 -0.34 0.68 0 0 Z " fill="#3370A6" transform="translate(348,562)"/>
  <path d="M0 0 C0.75 1.6875 0.75 1.6875 1 4 C-0.8125 6.5 -0.8125 6.5 -3 9 C-3.33 9.7425 -3.66 10.485 -4 11.25 C-5 13 -5 13 -7.0625 13.609375 C-7.701875 13.73828125 -8.34125 13.8671875 -9 14 C-7.87540329 12.22891052 -6.75030797 10.45813764 -5.625 8.6875 C-4.99851562 7.70136719 -4.37203125 6.71523438 -3.7265625 5.69921875 C-2.50348387 3.78712071 -1.2590644 1.8885966 0 0 Z " fill="#E1F6FA" transform="translate(535,378)"/>
  <path d="M0 0 C6.67491831 -0.45510807 12.59374557 1.2327574 19 3 C18.67 3.66 18.34 4.32 18 5 C15.18542106 4.55229391 12.37380871 4.09242783 9.5625 3.625 C8.76005859 3.49867188 7.95761719 3.37234375 7.13085938 3.2421875 C5.07479277 2.89517204 3.03509869 2.45409572 1 2 C0.67 1.34 0.34 0.68 0 0 Z " fill="#2567A1" transform="translate(515,168)"/>
  <path d="M0 0 C2.475 0.495 2.475 0.495 5 1 C5 1.66 5 2.32 5 3 C5.99 2.67 6.98 2.34 8 2 C8 4.31 8 6.62 8 9 C1.42857143 3.85714286 1.42857143 3.85714286 0 0 Z " fill="#2C699C" transform="translate(357,433)"/>
  <path d="M0 0 C1.32 0.33 2.64 0.66 4 1 C2.41037341 5.03520597 0.71767682 9.01811282 -1 13 C-1.33 13 -1.66 13 -2 13 C-1.85851011 11.3954444 -1.71164314 9.79136233 -1.5625 8.1875 C-1.48128906 7.29417969 -1.40007812 6.40085937 -1.31640625 5.48046875 C-1 3 -1 3 0 0 Z " fill="#306FA4" transform="translate(498,326)"/>
  <path d="M0 0 C0.33 0.66 0.66 1.32 1 2 C1.99 2.33 2.98 2.66 4 3 C4 3.33 4 3.66 4 4 C-2.5705166 4.24794402 -8.56971459 3.32388229 -15 2 C-15 1.67 -15 1.34 -15 1 C-10.05 1.33 -5.1 1.66 0 2 C0 1.34 0 0.68 0 0 Z " fill="#2E6AA8" transform="translate(226,756)"/>
  <path d="M0 0 C-0.125 1.8125 -0.125 1.8125 -1 4 C-3.8125 5.5625 -3.8125 5.5625 -7 7 C-8.35863401 7.96534522 -9.70343137 8.95277149 -11 10 C-9.15919405 5.21390453 -5.3291986 0 0 0 Z " fill="#3A78AB" transform="translate(299,723)"/>
  <path d="M0 0 C6.625 -0.125 6.625 -0.125 10 1 C10 1.66 10 2.32 10 3 C7.69 3 5.38 3 3 3 C2.34 4.32 1.68 5.64 1 7 C0.67 7 0.34 7 0 7 C0 4.69 0 2.38 0 0 Z " fill="#326FA3" transform="translate(514,234)"/>
  <path d="M0 0 C-1.47721422 3.45201639 -3.43794001 5.64961936 -6.125 8.25 C-6.84945313 8.95640625 -7.57390625 9.6628125 -8.3203125 10.390625 C-8.87460937 10.92171875 -9.42890625 11.4528125 -10 12 C-10 8.86248779 -9.64820195 7.60242414 -8 5 C-7.01 4.67 -6.02 4.34 -5 4 C-4.67 3.01 -4.34 2.02 -4 1 C-2 0 -2 0 0 0 Z " fill="#135B96" transform="translate(292,203)"/>
  <path d="M0 0 C2.4849427 3.72741406 3.17621888 7.28412382 4.21875 11.6015625 C4.4765625 12.39304687 4.734375 13.18453125 5 14 C5.66 14.33 6.32 14.66 7 15 C6.01 15.66 5.02 16.32 4 17 C1.60251894 11.26689311 0.41588046 6.19518473 0 0 Z " fill="#1861A5" transform="translate(89,631)"/>
  <path d="M0 0 C0.33 0 0.66 0 1 0 C1.31985731 6.71700347 0.4793824 11.75726932 -2 18 C-3.51553092 14.02549507 -2.49888623 10.79518851 -1.5625 6.75 C-1.27503906 5.48671875 -0.98757813 4.2234375 -0.69140625 2.921875 C-0.46324219 1.95765625 -0.23507812 0.9934375 0 0 Z " fill="#346EA0" transform="translate(502,306)"/>
  <path d="M0 0 C-3.01887244 3.48331435 -5.56909529 4.79157144 -10 6 C-9.875 4.1875 -9.875 4.1875 -9 2 C-3.81203008 -1.27067669 -3.81203008 -1.27067669 0 0 Z " fill="#2769A0" transform="translate(472,152)"/>
  <path d="M0 0 C0.99 0.66 1.98 1.32 3 2 C0.36 4.64 -2.28 7.28 -5 10 C-5.99 9.67 -6.98 9.34 -8 9 C-7.50628906 8.51789062 -7.01257813 8.03578125 -6.50390625 7.5390625 C-5.86324219 6.90742187 -5.22257812 6.27578125 -4.5625 5.625 C-3.92441406 4.99851562 -3.28632813 4.37203125 -2.62890625 3.7265625 C-0.92117824 2.08276939 -0.92117824 2.08276939 0 0 Z " fill="#E0F2F8" transform="translate(500,652)"/>
  <path d="M0 0 C0.33 0.66 0.66 1.32 1 2 C0.06421005 4.35981813 -0.93347808 6.69631264 -2 9 C-2.66 9 -3.32 9 -4 9 C-4.33 10.32 -4.66 11.64 -5 13 C-5.66 13 -6.32 13 -7 13 C-5.35821735 8.22390502 -2.73453298 4.20617096 0 0 Z " fill="#4E7FA9" transform="translate(425,563)"/>
  <path d="M0 0 C0.33 0 0.66 0 1 0 C1.05383848 2.45862401 1.09359038 4.9160755 1.125 7.375 C1.14175781 8.07367188 1.15851563 8.77234375 1.17578125 9.4921875 C1.19344267 11.32897486 1.10303261 13.16601963 1 15 C0.34 15.66 -0.32 16.32 -1 17 C-1 16.01 -1 15.02 -1 14 C-1.18433594 13.38640625 -1.36867188 12.7728125 -1.55859375 12.140625 C-2.1195116 9.42042162 -1.6664526 7.45002341 -1.0625 4.75 C-0.86785156 3.85796875 -0.67320312 2.9659375 -0.47265625 2.046875 C-0.31667969 1.37140625 -0.16070312 0.6959375 0 0 Z " fill="#0F5A9A" transform="translate(382,94)"/>
  <path d="M0 0 C0 0.99 0 1.98 0 3 C-1.98 3.99 -1.98 3.99 -4 5 C-4 5.66 -4 6.32 -4 7 C-5.96466413 8.06775224 -7.96855359 9.06553465 -10 10 C-10.66 9.67 -11.32 9.34 -12 9 C-8.04 6.03 -4.08 3.06 0 0 Z " fill="#DEF1FB" transform="translate(368,716)"/>
  <path d="M0 0 C0.70703125 1.734375 0.70703125 1.734375 1 4 C-0.36328125 6.140625 -0.36328125 6.140625 -2.3125 8.25 C-2.94800781 8.95640625 -3.58351563 9.6628125 -4.23828125 10.390625 C-6 12 -6 12 -8 12 C-6.59023295 8.96147295 -4.91129772 6.4060405 -2.875 3.75 C-2.06675781 2.69039062 -2.06675781 2.69039062 -1.2421875 1.609375 C-0.83226562 1.07828125 -0.42234375 0.5471875 0 0 Z " fill="#4A80AE" transform="translate(388,619)"/>
  <path d="M0 0 C0.33 0 0.66 0 1 0 C1.19645093 3.12450532 1.38063489 6.24961445 1.5625 9.375 C1.61857422 10.26445313 1.67464844 11.15390625 1.73242188 12.0703125 C1.78076172 12.92109375 1.82910156 13.771875 1.87890625 14.6484375 C1.9260376 15.43395996 1.97316895 16.21948242 2.02172852 17.02880859 C2 19 2 19 1 21 C0.34 21 -0.32 21 -1 21 C-0.67 14.07 -0.34 7.14 0 0 Z " fill="#C6DFF1" transform="translate(469,587)"/>
  <path d="M0 0 C0.33 0.99 0.66 1.98 1 3 C-3.82142857 8.22321429 -3.82142857 8.22321429 -8 9 C-7.04270084 7.87411986 -6.08412105 6.7493285 -5.125 5.625 C-4.59132813 4.99851562 -4.05765625 4.37203125 -3.5078125 3.7265625 C-2.38567993 2.44163349 -1.20628025 1.20628025 0 0 Z " fill="#6E97B9" transform="translate(493,662)"/>
  <path d="M0 0 C0.99 0.66 1.98 1.32 3 2 C2.02433888 3.16959987 1.044375 4.33561177 0.0625 5.5 C-0.48277344 6.1496875 -1.02804687 6.799375 -1.58984375 7.46875 C-2.05519531 7.9740625 -2.52054687 8.479375 -3 9 C-3.33 9 -3.66 9 -4 9 C-4 7.35 -4 5.7 -4 4 C-3.34 4 -2.68 4 -2 4 C-1.34 2.68 -0.68 1.36 0 0 Z " fill="#5888B7" transform="translate(445,644)"/>
  <path d="M0 0 C-1.09068668 3.77545388 -1.9083091 6.47043472 -5 9 C-5.1875 5.625 -5.1875 5.625 -5 2 C-2 0 -2 0 0 0 Z " fill="#3370A3" transform="translate(329,615)"/>
  <path d="M0 0 C0.99 0.33 1.98 0.66 3 1 C2.02526874 2.66926454 1.04510211 4.33535642 0.0625 6 C-0.75541016 7.3921875 -0.75541016 7.3921875 -1.58984375 8.8125 C-2.05519531 9.534375 -2.52054688 10.25625 -3 11 C-3.33 11 -3.66 11 -4 11 C-4 9.35 -4 7.7 -4 6 C-3.34 6 -2.68 6 -2 6 C-2 5.34 -2 4.68 -2 4 C-1.34 4 -0.68 4 0 4 C0 2.68 0 1.36 0 0 Z " fill="#4476A7" transform="translate(249,750)"/>
  <path d="M0 0 C0.99 0.33 1.98 0.66 3 1 C4.62323754 4.75907641 5.23994929 7.92086213 5 12 C3.20931427 9.3139714 2.33944209 7.3373411 1.375 4.3125 C1.11460937 3.50425781 0.85421875 2.69601562 0.5859375 1.86328125 C0.39257812 1.24839844 0.19921875 0.63351562 0 0 Z " fill="#6593B8" transform="translate(532,532)"/>
  <path d="M0 0 C4.24846075 0.47205119 6.26819288 2.88877522 9 6 C9 6.66 9 7.32 9 8 C5.27762318 6.75920773 3.64250671 4.85112566 1 2 C0.67 1.34 0.34 0.68 0 0 Z " fill="#28659C" transform="translate(307,404)"/>
  <path d="M0 0 C2 3 2 3 1.75 6.0625 C1 9 1 9 -1 11 C-1.0270043 9.54176788 -1.04639787 8.08339325 -1.0625 6.625 C-1.07410156 5.81289063 -1.08570313 5.00078125 -1.09765625 4.1640625 C-1 2 -1 2 0 0 Z " fill="#3971AC" transform="translate(510,261)"/>
  <path d="M0 0 C4.82360189 -0.19294408 8.49646738 0.24252386 13 2 C13 2.33 13 2.66 13 3 C8.48382401 3.07654536 4.40914783 3.10228696 0 2 C0 1.34 0 0.68 0 0 Z " fill="#2E699C" transform="translate(489,164)"/>
  <path d="M0 0 C-4.455 2.97 -4.455 2.97 -9 6 C-9 4.68 -9 3.36 -9 2 C-3.375 -1.125 -3.375 -1.125 0 0 Z " fill="#5483AE" transform="translate(353,728)"/>
  <path d="M0 0 C0.66 0.33 1.32 0.66 2 1 C1.38245741 2.31602523 0.75571258 3.62773556 0.125 4.9375 C-0.22304688 5.66839844 -0.57109375 6.39929688 -0.9296875 7.15234375 C-2 9 -2 9 -4 10 C-3.125 4.25 -3.125 4.25 -2 2 C-1.34 2 -0.68 2 0 2 C0 1.34 0 0.68 0 0 Z " fill="#3B73A5" transform="translate(307,656)"/>
  <path d="M0 0 C2.2344598 4.03292745 2.54496743 7.44967434 3 12 C2.01 12.495 2.01 12.495 1 13 C-0.32229189 10.35541621 -0.09677194 8.32238699 -0.0625 5.375 C-0.05347656 4.37210938 -0.04445313 3.36921875 -0.03515625 2.3359375 C-0.02355469 1.56507813 -0.01195312 0.79421875 0 0 Z " fill="#568CB8" transform="translate(541,553)"/>
  <path d="M0 0 C3 1 3 1 4.6875 3.25 C6.06511203 6.1364252 6.26985151 7.85173236 6 11 C3.13546142 7.58983503 1.65296434 4.09305456 0 0 Z " fill="#2F6BA0" transform="translate(327,386)"/>
  <path d="M0 0 C0 0.99 0 1.98 0 3 C-1.31787285 4.02028865 -2.65210653 5.01971384 -4 6 C-4.33 6.99 -4.66 7.98 -5 9 C-5.66 9 -6.32 9 -7 9 C-7.33 8.01 -7.66 7.02 -8 6 C-5.36 4.02 -2.72 2.04 0 0 Z " fill="#5286B4" transform="translate(573,378)"/>
  <path d="M0 0 C0.66 0.66 1.32 1.32 2 2 C1.34 2 0.68 2 0 2 C0.33 2.99 0.66 3.98 1 5 C0.0625 8.1875 0.0625 8.1875 -1 11 C-1.33 11 -1.66 11 -2 11 C-2.25 3.375 -2.25 3.375 0 0 Z " fill="#296CA7" transform="translate(507,287)"/>
  <path d="M0 0 C0.66 0.99 1.32 1.98 2 3 C0.35 4.65 -1.3 6.3 -3 8 C-3.66 7.34 -4.32 6.68 -5 6 C-3.35 4.02 -1.7 2.04 0 0 Z " fill="#2369A4" transform="translate(318,265)"/>
  <path d="M0 0 C0.66 0.33 1.32 0.66 2 1 C1.8125 2.875 1.8125 2.875 1 5 C-1.5625 6.25 -1.5625 6.25 -4 7 C-3.43628586 3.73045798 -2.50037734 2.17424117 0 0 Z " fill="#1D67A0" transform="translate(491,131)"/>
  <path d="M0 0 C0.99 0.33 1.98 0.66 3 1 C1.38405168 3.04119788 -0.2856382 5.04072937 -2 7 C-2.66 7 -3.32 7 -4 7 C-3.43628586 3.73045798 -2.50037734 2.17424117 0 0 Z " fill="#3877AD" transform="translate(277,740)"/>
  <path d="M0 0 C0.66 0 1.32 0 2 0 C4.3208055 3.2491277 5.43697042 6.05879291 6 10 C5.01 10.495 5.01 10.495 4 11 C2.68 7.37 1.36 3.74 0 0 Z " fill="#2D68A5" transform="translate(319,368)"/>
  <path d="M0 0 C0.33 0 0.66 0 1 0 C1 3.96 1 7.92 1 12 C0.34 12 -0.32 12 -1 12 C-2.45606519 7.47907032 -1.27032841 4.48351204 0 0 Z " fill="#125A94" transform="translate(254,297)"/>
  <path d="M0 0 C0.33 0 0.66 0 1 0 C2.61050328 8.03501094 2.61050328 8.03501094 0.0625 12.0625 C-0.618125 12.701875 -1.29875 13.34125 -2 14 C-1.43393721 9.30976546 -0.81462495 4.65499974 0 0 Z " fill="#CDE6F2" transform="translate(258,260)"/>
  <path d="M0 0 C1.65 0 3.3 0 5 0 C0.375 4.875 0.375 4.875 -3 6 C-2.67 5.01 -2.34 4.02 -2 3 C-1.34 3 -0.68 3 0 3 C0 2.01 0 1.02 0 0 Z " fill="#E1F3F9" transform="translate(257,753)"/>
  <path d="M0 0 C0 0.99 0 1.98 0 3 C-3.96 2.67 -7.92 2.34 -12 2 C-12 1.67 -12 1.34 -12 1 C-7.915021 0.45533613 -4.1274515 0 0 0 Z " fill="#DBEEF7" transform="translate(386,169)"/>
  <path d="M0 0 C4.455 0.99 4.455 0.99 9 2 C9 2.33 9 2.66 9 3 C6.03 3 3.06 3 0 3 C0 2.01 0 1.02 0 0 Z " fill="#1C5D99" transform="translate(424,157)"/>
  <path d="M0 0 C0 3 0 3 -1 5 C-2.65 5 -4.3 5 -6 5 C-6 4.34 -6 3.68 -6 3 C-4.02 2.01 -2.04 1.02 0 0 Z " fill="#5486B5" transform="translate(377,743)"/>
  <path d="M0 0 C0.66 0.33 1.32 0.66 2 1 C1.0479279 2.00596297 0.08812654 3.00461563 -0.875 4 C-1.40867187 4.556875 -1.94234375 5.11375 -2.4921875 5.6875 C-4 7 -4 7 -6 7 C-6 6.01 -6 5.02 -6 4 C-5.01 3.67 -4.02 3.34 -3 3 C-1.33289654 1.50014391 -1.33289654 1.50014391 0 0 Z " fill="#5987AF" transform="translate(411,680)"/>
  <path d="M0 0 C0.66 0 1.32 0 2 0 C0.8141763 3.37503669 -0.27573689 5.64722731 -3 8 C-2.25 2.25 -2.25 2.25 0 0 Z " fill="#5B8BAF" transform="translate(455,632)"/>
  <path d="M0 0 C2.89932357 2.39509338 3.50168276 4.31245243 4 8 C3.34 8 2.68 8 2 8 C0.3125 5.6875 0.3125 5.6875 -1 3 C-0.67 2.01 -0.34 1.02 0 0 Z " fill="#1B619A" transform="translate(270,355)"/>
  <path d="M0 0 C0.33 0.66 0.66 1.32 1 2 C1.99 2 2.98 2 4 2 C3.34 4.31 2.68 6.62 2 9 C1.67 9 1.34 9 1 9 C0.67 6.03 0.34 3.06 0 0 Z " fill="#176097" transform="translate(306,318)"/>
  <path d="M0 0 C0.33 0 0.66 0 1 0 C1.125 6.625 1.125 6.625 0 10 C-0.66 10 -1.32 10 -2 10 C-1.54177532 6.53058454 -1.10868317 3.32604951 0 0 Z " fill="#D0EBF6" transform="translate(262,247)"/>
  <path d="M0 0 C1.65 0 3.3 0 5 0 C2.63707344 2.52588702 1.33537489 3.88820837 -2 5 C-1.34 3.35 -0.68 1.7 0 0 Z " fill="#4778AC" transform="translate(323,744)"/>
  <path d="M0 0 C0.33 0.99 0.66 1.98 1 3 C-0.75 4.5625 -0.75 4.5625 -3 6 C-4.32 5.67 -5.64 5.34 -7 5 C-4.69 3.35 -2.38 1.7 0 0 Z " fill="#E0F3FA" transform="translate(343,734)"/>
  <path d="M0 0 C0.33 0.66 0.66 1.32 1 2 C-1.40983607 6.70491803 -1.40983607 6.70491803 -4 8 C-3.50168276 4.31245243 -2.89932357 2.39509338 0 0 Z " fill="#719AB9" transform="translate(512,643)"/>
  <path d="M0 0 C0.66 0 1.32 0 2 0 C3.6875 1.75 3.6875 1.75 5 4 C4.6875 6.25 4.6875 6.25 4 8 C0 2.25 0 2.25 0 0 Z " fill="#30669B" transform="translate(335,400)"/>
  <path d="M0 0 C2.86724686 0.57344937 3.8614515 0.8614515 6 3 C6 3.99 6 4.98 6 6 C5.01 5.67 4.02 5.34 3 5 C3 4.01 3 3.02 3 2 C2.01 2 1.02 2 0 2 C0 1.34 0 0.68 0 0 Z " fill="#23609A" transform="translate(293,390)"/>
  <path d="M0 0 C0.99 0.33 1.98 0.66 3 1 C1.68 3.31 0.36 5.62 -1 8 C-2 6 -2 6 -1.0625 2.875 C-0.5365625 1.451875 -0.5365625 1.451875 0 0 Z " fill="#467DAD" transform="translate(553,341)"/>
  <path d="M0 0 C0.66 0 1.32 0 2 0 C1.8125 1.8125 1.8125 1.8125 1 4 C-1.5625 5.75 -1.5625 5.75 -4 7 C-2.92598892 4.08482708 -2.22189824 2.22189824 0 0 Z " fill="#407FBE" transform="translate(614,336)"/>
</svg>